<mxfile host="app.diagrams.net" agent="Mozilla/5.0 (Macintosh; Intel Mac OS X 10_15_7) AppleWebKit/537.36 (KHTML, like Gecko) Chrome/126.0.0.0 Safari/537.36" version="24.7.5">
  <diagram name="Page-1" id="9t5yA-Y3DcvwDnE5G8pW">
    <mxGraphModel dx="1080" dy="685" grid="1" gridSize="10" guides="1" tooltips="1" connect="1" arrows="1" fold="1" page="1" pageScale="1" pageWidth="850" pageHeight="1100" math="0" shadow="0">
      <root>
        <mxCell id="0" />
        <mxCell id="1" parent="0" />
        <mxCell id="Q4HK041F2CEcGKDzW3Jh-2" value="&lt;span style=&quot;text-align: left;&quot;&gt;Data Capture&lt;/span&gt;" style="shape=umlLifeline;perimeter=lifelinePerimeter;whiteSpace=wrap;html=1;container=1;dropTarget=0;collapsible=0;recursiveResize=0;outlineConnect=0;portConstraint=eastwest;newEdgeStyle={&quot;edgeStyle&quot;:&quot;elbowEdgeStyle&quot;,&quot;elbow&quot;:&quot;vertical&quot;,&quot;curved&quot;:0,&quot;rounded&quot;:0};" vertex="1" parent="1">
          <mxGeometry x="170" y="180" width="100" height="550" as="geometry" />
        </mxCell>
        <mxCell id="Q4HK041F2CEcGKDzW3Jh-3" value="&lt;font style=&quot;font-size: 10px;&quot;&gt;Data processing&amp;amp;standardizing&lt;/font&gt;" style="shape=umlLifeline;perimeter=lifelinePerimeter;whiteSpace=wrap;html=1;container=1;dropTarget=0;collapsible=0;recursiveResize=0;outlineConnect=0;portConstraint=eastwest;newEdgeStyle={&quot;edgeStyle&quot;:&quot;elbowEdgeStyle&quot;,&quot;elbow&quot;:&quot;vertical&quot;,&quot;curved&quot;:0,&quot;rounded&quot;:0};" vertex="1" parent="1">
          <mxGeometry x="290" y="180" width="160" height="550" as="geometry" />
        </mxCell>
        <mxCell id="Q4HK041F2CEcGKDzW3Jh-4" value="" style="html=1;rounded=0;" vertex="1" parent="1">
          <mxGeometry x="205" y="330" width="30" height="30" as="geometry" />
        </mxCell>
        <mxCell id="Q4HK041F2CEcGKDzW3Jh-5" value="" style="endArrow=none;html=1;rounded=0;align=center;verticalAlign=top;endFill=0;labelBackgroundColor=none;endSize=2;" edge="1" source="Q4HK041F2CEcGKDzW3Jh-4" target="Q4HK041F2CEcGKDzW3Jh-6" parent="1">
          <mxGeometry relative="1" as="geometry" />
        </mxCell>
        <mxCell id="Q4HK041F2CEcGKDzW3Jh-6" value="" style="ellipse;html=1;fontSize=11;align=center;fillColor=none;points=[];aspect=fixed;resizable=0;verticalAlign=bottom;labelPosition=center;verticalLabelPosition=top;flipH=1;" vertex="1" parent="1">
          <mxGeometry x="366" y="341" width="8" height="8" as="geometry" />
        </mxCell>
        <mxCell id="Q4HK041F2CEcGKDzW3Jh-8" value="Onchain" style="text;html=1;align=center;verticalAlign=middle;resizable=0;points=[];autosize=1;strokeColor=none;fillColor=none;" vertex="1" parent="1">
          <mxGeometry x="185" y="360" width="70" height="30" as="geometry" />
        </mxCell>
        <mxCell id="Q4HK041F2CEcGKDzW3Jh-9" value="" style="html=1;rounded=0;" vertex="1" parent="1">
          <mxGeometry x="205" y="480" width="30" height="30" as="geometry" />
        </mxCell>
        <mxCell id="Q4HK041F2CEcGKDzW3Jh-10" value="" style="endArrow=none;html=1;rounded=0;align=center;verticalAlign=top;endFill=0;labelBackgroundColor=none;endSize=2;" edge="1" parent="1" source="Q4HK041F2CEcGKDzW3Jh-9" target="Q4HK041F2CEcGKDzW3Jh-11">
          <mxGeometry relative="1" as="geometry" />
        </mxCell>
        <mxCell id="Q4HK041F2CEcGKDzW3Jh-11" value="" style="ellipse;html=1;fontSize=11;align=center;fillColor=none;points=[];aspect=fixed;resizable=0;verticalAlign=bottom;labelPosition=center;verticalLabelPosition=top;flipH=1;" vertex="1" parent="1">
          <mxGeometry x="302" y="491" width="8" height="8" as="geometry" />
        </mxCell>
        <mxCell id="Q4HK041F2CEcGKDzW3Jh-12" value="Extension" style="text;html=1;align=center;verticalAlign=middle;resizable=0;points=[];autosize=1;strokeColor=none;fillColor=none;" vertex="1" parent="1">
          <mxGeometry x="180" y="510" width="80" height="30" as="geometry" />
        </mxCell>
        <mxCell id="Q4HK041F2CEcGKDzW3Jh-13" value="&lt;font style=&quot;font-size: 10px;&quot;&gt;Data store(IPNS)&lt;/font&gt;" style="shape=umlLifeline;perimeter=lifelinePerimeter;whiteSpace=wrap;html=1;container=1;dropTarget=0;collapsible=0;recursiveResize=0;outlineConnect=0;portConstraint=eastwest;newEdgeStyle={&quot;edgeStyle&quot;:&quot;elbowEdgeStyle&quot;,&quot;elbow&quot;:&quot;vertical&quot;,&quot;curved&quot;:0,&quot;rounded&quot;:0};" vertex="1" parent="1">
          <mxGeometry x="470" y="180" width="110" height="550" as="geometry" />
        </mxCell>
        <mxCell id="Q4HK041F2CEcGKDzW3Jh-14" value="&lt;font style=&quot;font-size: 10px;&quot;&gt;Marketplace&lt;/font&gt;" style="shape=umlLifeline;perimeter=lifelinePerimeter;whiteSpace=wrap;html=1;container=1;dropTarget=0;collapsible=0;recursiveResize=0;outlineConnect=0;portConstraint=eastwest;newEdgeStyle={&quot;edgeStyle&quot;:&quot;elbowEdgeStyle&quot;,&quot;elbow&quot;:&quot;vertical&quot;,&quot;curved&quot;:0,&quot;rounded&quot;:0};" vertex="1" parent="1">
          <mxGeometry x="600" y="180" width="80" height="550" as="geometry" />
        </mxCell>
        <mxCell id="Q4HK041F2CEcGKDzW3Jh-15" value="" style="html=1;rounded=0;" vertex="1" parent="1">
          <mxGeometry x="205" y="620" width="30" height="30" as="geometry" />
        </mxCell>
        <mxCell id="Q4HK041F2CEcGKDzW3Jh-16" value="" style="endArrow=none;html=1;rounded=0;align=center;verticalAlign=top;endFill=0;labelBackgroundColor=none;endSize=2;" edge="1" parent="1" source="Q4HK041F2CEcGKDzW3Jh-15" target="Q4HK041F2CEcGKDzW3Jh-17">
          <mxGeometry relative="1" as="geometry" />
        </mxCell>
        <mxCell id="Q4HK041F2CEcGKDzW3Jh-17" value="" style="ellipse;html=1;fontSize=11;align=center;fillColor=none;points=[];aspect=fixed;resizable=0;verticalAlign=bottom;labelPosition=center;verticalLabelPosition=top;flipH=1;" vertex="1" parent="1">
          <mxGeometry x="302" y="631" width="8" height="8" as="geometry" />
        </mxCell>
        <mxCell id="Q4HK041F2CEcGKDzW3Jh-18" value="Web2(Depin)" style="text;html=1;align=center;verticalAlign=middle;resizable=0;points=[];autosize=1;strokeColor=none;fillColor=none;" vertex="1" parent="1">
          <mxGeometry x="175" y="650" width="90" height="30" as="geometry" />
        </mxCell>
        <mxCell id="Q4HK041F2CEcGKDzW3Jh-19" value="" style="rounded=1;whiteSpace=wrap;html=1;fillColor=none;dashed=1;" vertex="1" parent="1">
          <mxGeometry x="175" y="300" width="225" height="100" as="geometry" />
        </mxCell>
        <mxCell id="Q4HK041F2CEcGKDzW3Jh-20" value="Docker Composer" style="text;html=1;align=center;verticalAlign=middle;resizable=0;points=[];autosize=1;strokeColor=none;fillColor=none;" vertex="1" parent="1">
          <mxGeometry x="235" y="300" width="120" height="30" as="geometry" />
        </mxCell>
        <mxCell id="Q4HK041F2CEcGKDzW3Jh-22" value="&lt;div&gt;&lt;br&gt;&lt;/div&gt;" style="rounded=0;whiteSpace=wrap;html=1;fillColor=none;dashed=1;dashPattern=1 2;" vertex="1" parent="1">
          <mxGeometry x="40" y="290" width="390" height="130" as="geometry" />
        </mxCell>
        <mxCell id="Q4HK041F2CEcGKDzW3Jh-23" value="&lt;div&gt;&lt;br&gt;&lt;/div&gt;" style="text;html=1;align=center;verticalAlign=middle;resizable=0;points=[];autosize=1;strokeColor=none;fillColor=none;" vertex="1" parent="1">
          <mxGeometry x="70" y="275" width="20" height="30" as="geometry" />
        </mxCell>
        <mxCell id="Q4HK041F2CEcGKDzW3Jh-24" value="&lt;div style=&quot;forced-color-adjust: none; font-size: 11px;&quot;&gt;&lt;font style=&quot;font-size: 11px;&quot;&gt;- Task setting&lt;br&gt;&lt;br&gt;&lt;/font&gt;&lt;/div&gt;&lt;div style=&quot;forced-color-adjust: none; font-size: 11px;&quot;&gt;&lt;font style=&quot;font-size: 11px;&quot;&gt;-&amp;nbsp;&lt;span style=&quot;background-color: initial;&quot;&gt;Contract monitoring&lt;br&gt;&amp;nbsp; Address&amp;nbsp;&lt;/span&gt;&lt;span style=&quot;background-color: initial;&quot;&gt;monitoring&lt;br&gt;&amp;nbsp;&amp;nbsp;&lt;/span&gt;&lt;span style=&quot;background-color: initial;&quot;&gt;Block content traversal&lt;br&gt;&lt;br&gt;&lt;/span&gt;&lt;/font&gt;&lt;/div&gt;&lt;div style=&quot;forced-color-adjust: none;&quot;&gt;&lt;font style=&quot;font-size: 11px;&quot;&gt;&lt;span style=&quot;background-color: initial;&quot;&gt;-&amp;nbsp;&lt;/span&gt;&lt;/font&gt;&lt;span style=&quot;background-color: initial;&quot;&gt;&lt;font style=&quot;font-size: 9px;&quot;&gt;Data Structure Transformation&lt;/font&gt;&lt;/span&gt;&lt;/div&gt;&lt;div style=&quot;font-size: 11px;&quot;&gt;&lt;span style=&quot;background-color: initial;&quot;&gt;&lt;font style=&quot;font-size: 11px;&quot;&gt;&lt;br&gt;&lt;/font&gt;&lt;/span&gt;&lt;/div&gt;&lt;div style=&quot;forced-color-adjust: none; font-size: 11px;&quot;&gt;&lt;br style=&quot;forced-color-adjust: none; color: rgb(0, 0, 0); font-family: Helvetica; font-style: normal; font-variant-ligatures: normal; font-variant-caps: normal; font-weight: 400; letter-spacing: normal; orphans: 2; text-align: center; text-indent: 0px; text-transform: none; widows: 2; word-spacing: 0px; -webkit-text-stroke-width: 0px; white-space: nowrap; background-color: rgb(251, 251, 251); text-decoration-thickness: initial; text-decoration-style: initial; text-decoration-color: initial;&quot;&gt;&lt;/div&gt;" style="text;whiteSpace=wrap;html=1;" vertex="1" parent="1">
          <mxGeometry x="50" y="305" width="150" height="165" as="geometry" />
        </mxCell>
        <mxCell id="Q4HK041F2CEcGKDzW3Jh-25" value="" style="rounded=0;whiteSpace=wrap;html=1;align=left;" vertex="1" parent="1">
          <mxGeometry x="310" y="465" width="120" height="60" as="geometry" />
        </mxCell>
        <mxCell id="Q4HK041F2CEcGKDzW3Jh-26" value="" style="rounded=0;whiteSpace=wrap;html=1;fillColor=none;dashed=1;dashPattern=1 2;" vertex="1" parent="1">
          <mxGeometry x="40" y="450" width="220" height="100" as="geometry" />
        </mxCell>
        <mxCell id="Q4HK041F2CEcGKDzW3Jh-27" value="&lt;div&gt;&lt;br&gt;&lt;/div&gt;" style="text;html=1;align=center;verticalAlign=middle;resizable=0;points=[];autosize=1;strokeColor=none;fillColor=none;" vertex="1" parent="1">
          <mxGeometry x="25" y="596" width="20" height="30" as="geometry" />
        </mxCell>
        <mxCell id="Q4HK041F2CEcGKDzW3Jh-30" value="- Wallet Login Extension&lt;div&gt;&lt;br&gt;&lt;/div&gt;&lt;div&gt;- Selective Web Crawler&lt;/div&gt;&lt;div&gt;&lt;br&gt;&lt;/div&gt;&lt;div&gt;- Tag &amp;amp; Sign&lt;/div&gt;&lt;div&gt;&lt;div style=&quot;forced-color-adjust: none;&quot;&gt;&lt;br style=&quot;forced-color-adjust: none; color: rgb(0, 0, 0); font-family: Helvetica; font-size: 12px; font-style: normal; font-variant-ligatures: normal; font-variant-caps: normal; font-weight: 400; letter-spacing: normal; orphans: 2; text-align: center; text-indent: 0px; text-transform: none; widows: 2; word-spacing: 0px; -webkit-text-stroke-width: 0px; white-space: nowrap; background-color: rgb(251, 251, 251); text-decoration-thickness: initial; text-decoration-style: initial; text-decoration-color: initial;&quot;&gt;&lt;/div&gt;&lt;/div&gt;" style="text;whiteSpace=wrap;html=1;" vertex="1" parent="1">
          <mxGeometry x="40" y="450" width="160" height="100" as="geometry" />
        </mxCell>
        <mxCell id="Q4HK041F2CEcGKDzW3Jh-33" value="&lt;font style=&quot;&quot;&gt;&lt;font style=&quot;font-size: 9px;&quot;&gt;· Text and image content&amp;nbsp; &amp;nbsp; &amp;nbsp; &amp;nbsp; &amp;nbsp; &amp;nbsp;annotation&lt;/font&gt;&lt;br&gt;&lt;span style=&quot;font-size: 10px;&quot;&gt;·&amp;nbsp;&lt;/span&gt;&lt;/font&gt;&lt;font style=&quot;font-size: 9px;&quot;&gt;unified data structure&lt;/font&gt;" style="text;whiteSpace=wrap;html=1;" vertex="1" parent="1">
          <mxGeometry x="310" y="465" width="120" height="55" as="geometry" />
        </mxCell>
        <mxCell id="Q4HK041F2CEcGKDzW3Jh-35" value="" style="rounded=0;whiteSpace=wrap;html=1;fillColor=none;dashed=1;dashPattern=1 2;" vertex="1" parent="1">
          <mxGeometry x="40" y="596" width="230" height="84" as="geometry" />
        </mxCell>
        <mxCell id="Q4HK041F2CEcGKDzW3Jh-37" value="- Data transmission API" style="text;html=1;align=center;verticalAlign=middle;resizable=0;points=[];autosize=1;strokeColor=none;fillColor=none;" vertex="1" parent="1">
          <mxGeometry x="35" y="601" width="150" height="30" as="geometry" />
        </mxCell>
        <mxCell id="Q4HK041F2CEcGKDzW3Jh-38" value="&lt;font style=&quot;font-size: 9px;&quot;&gt;on-chain data processing nodes&lt;/font&gt;" style="rounded=1;whiteSpace=wrap;html=1;" vertex="1" parent="1">
          <mxGeometry x="310" y="608" width="120" height="60" as="geometry" />
        </mxCell>
        <mxCell id="Q4HK041F2CEcGKDzW3Jh-39" value="&lt;span style=&quot;font-weight: 600; color: rgba(0, 0, 0, 0.8); font-family: -apple-system, &amp;quot;system-ui&amp;quot;, &amp;quot;Segoe UI&amp;quot;, Roboto, Oxygen, Ubuntu, Cantarell, &amp;quot;Fira Sans&amp;quot;, &amp;quot;Droid Sans&amp;quot;, &amp;quot;Helvetica Neue&amp;quot;, sans-serif; text-align: start; background-color: rgb(255, 255, 255);&quot;&gt;&lt;font style=&quot;vertical-align: inherit; font-size: 14px;&quot;&gt;DHT&lt;/font&gt;&lt;/span&gt;" style="rounded=1;whiteSpace=wrap;html=1;" vertex="1" parent="1">
          <mxGeometry x="482.5" y="311" width="85" height="30" as="geometry" />
        </mxCell>
        <mxCell id="Q4HK041F2CEcGKDzW3Jh-40" value="&lt;span style=&quot;font-weight: 600; color: rgba(0, 0, 0, 0.8); font-family: -apple-system, &amp;quot;system-ui&amp;quot;, &amp;quot;Segoe UI&amp;quot;, Roboto, Oxygen, Ubuntu, Cantarell, &amp;quot;Fira Sans&amp;quot;, &amp;quot;Droid Sans&amp;quot;, &amp;quot;Helvetica Neue&amp;quot;, sans-serif; text-align: start; background-color: rgb(255, 255, 255);&quot;&gt;&lt;font style=&quot;vertical-align: inherit; font-size: 14px;&quot;&gt;PubSub&lt;/font&gt;&lt;/span&gt;" style="rounded=1;whiteSpace=wrap;html=1;" vertex="1" parent="1">
          <mxGeometry x="482.5" y="400" width="85" height="30" as="geometry" />
        </mxCell>
        <mxCell id="Q4HK041F2CEcGKDzW3Jh-41" value="&lt;div style=&quot;text-align: start;&quot;&gt;&lt;font face=&quot;-apple-system, system-ui, Segoe UI, Roboto, Oxygen, Ubuntu, Cantarell, Fira Sans, Droid Sans, Helvetica Neue, sans-serif&quot; color=&quot;rgba(0, 0, 0, 0.8)&quot;&gt;&lt;span style=&quot;font-size: 14px; background-color: rgb(255, 255, 255);&quot;&gt;&lt;b&gt;Access&lt;br&gt;control&lt;/b&gt;&lt;/span&gt;&lt;/font&gt;&lt;/div&gt;" style="rounded=1;whiteSpace=wrap;html=1;" vertex="1" parent="1">
          <mxGeometry x="440" y="400" width="30" height="112.5" as="geometry" />
        </mxCell>
        <mxCell id="Q4HK041F2CEcGKDzW3Jh-42" value="" style="edgeStyle=none;orthogonalLoop=1;jettySize=auto;html=1;rounded=0;" edge="1" parent="1">
          <mxGeometry width="80" relative="1" as="geometry">
            <mxPoint x="370" y="448.95" as="sourcePoint" />
            <mxPoint x="430" y="449" as="targetPoint" />
            <Array as="points" />
          </mxGeometry>
        </mxCell>
        <mxCell id="Q4HK041F2CEcGKDzW3Jh-43" value="" style="edgeStyle=none;orthogonalLoop=1;jettySize=auto;html=1;rounded=0;" edge="1" parent="1">
          <mxGeometry width="80" relative="1" as="geometry">
            <mxPoint x="482.5" y="449.99999999999994" as="sourcePoint" />
            <mxPoint x="520" y="450" as="targetPoint" />
            <Array as="points" />
          </mxGeometry>
        </mxCell>
        <mxCell id="Q4HK041F2CEcGKDzW3Jh-44" value="&lt;div style=&quot;&quot;&gt;&lt;font size=&quot;1&quot; face=&quot;-apple-system, system-ui, Segoe UI, Roboto, Oxygen, Ubuntu, Cantarell, Fira Sans, Droid Sans, Helvetica Neue, sans-serif&quot;&gt;&lt;span style=&quot;background-color: rgb(255, 255, 255); font-size: 10px;&quot;&gt;&lt;b&gt;Verifiable Credentials&lt;/b&gt;&lt;/span&gt;&lt;/font&gt;&lt;/div&gt;" style="rounded=1;whiteSpace=wrap;html=1;align=center;" vertex="1" parent="1">
          <mxGeometry x="482.5" y="490" width="87.5" height="40" as="geometry" />
        </mxCell>
        <mxCell id="Q4HK041F2CEcGKDzW3Jh-45" value="&lt;span style=&quot;font-weight: 600; color: rgba(0, 0, 0, 0.8); font-family: -apple-system, &amp;quot;system-ui&amp;quot;, &amp;quot;Segoe UI&amp;quot;, Roboto, Oxygen, Ubuntu, Cantarell, &amp;quot;Fira Sans&amp;quot;, &amp;quot;Droid Sans&amp;quot;, &amp;quot;Helvetica Neue&amp;quot;, sans-serif; text-align: start; background-color: rgb(255, 255, 255);&quot;&gt;&lt;font style=&quot;vertical-align: inherit; font-size: 14px;&quot;&gt;Proof&lt;/font&gt;&lt;/span&gt;" style="rounded=1;whiteSpace=wrap;html=1;" vertex="1" parent="1">
          <mxGeometry x="482.5" y="578" width="85" height="30" as="geometry" />
        </mxCell>
        <mxCell id="Q4HK041F2CEcGKDzW3Jh-46" value="&lt;div&gt;Data set presentation&lt;/div&gt;" style="rounded=1;whiteSpace=wrap;html=1;" vertex="1" parent="1">
          <mxGeometry x="580" y="260" width="120" height="60" as="geometry" />
        </mxCell>
        <mxCell id="Q4HK041F2CEcGKDzW3Jh-47" value="&lt;div&gt;Data Streaming API&lt;/div&gt;" style="rounded=1;whiteSpace=wrap;html=1;" vertex="1" parent="1">
          <mxGeometry x="580" y="385" width="120" height="60" as="geometry" />
        </mxCell>
        <mxCell id="Q4HK041F2CEcGKDzW3Jh-48" value="Database management&lt;br&gt;(Graphql,&amp;nbsp;&lt;span style=&quot;color: rgb(51, 51, 51); font-family: Helvetica, Arial, &amp;quot;Microsoft Yahei&amp;quot;, SimSun, STXihei, sans-serif; font-size: 14px; text-align: start;&quot;&gt;NoSQL&lt;/span&gt;)" style="rounded=1;whiteSpace=wrap;html=1;" vertex="1" parent="1">
          <mxGeometry x="580" y="510" width="120" height="60" as="geometry" />
        </mxCell>
        <mxCell id="Q4HK041F2CEcGKDzW3Jh-49" value="&lt;div&gt;Settlement algorithm&lt;/div&gt;" style="rounded=1;whiteSpace=wrap;html=1;" vertex="1" parent="1">
          <mxGeometry x="580" y="635" width="120" height="60" as="geometry" />
        </mxCell>
      </root>
    </mxGraphModel>
  </diagram>
</mxfile>
